<?xml version="1.0" encoding="UTF-8" standalone="no"?>
<!-- Generator: Adobe Illustrator 19.0.0, SVG Export Plug-In . SVG Version: 6.00 Build 0)  -->

<svg
   xmlns:dc="http://purl.org/dc/elements/1.1/"
   xmlns:cc="http://creativecommons.org/ns#"
   xmlns:rdf="http://www.w3.org/1999/02/22-rdf-syntax-ns#"
   xmlns:svg="http://www.w3.org/2000/svg"
   xmlns="http://www.w3.org/2000/svg"
   xmlns:sodipodi="http://sodipodi.sourceforge.net/DTD/sodipodi-0.dtd"
   xmlns:inkscape="http://www.inkscape.org/namespaces/inkscape"
   version="1.1"
   id="Capa_1"
   x="0px"
   y="0px"
   viewBox="0 0 512 512"
   style="enable-background:new 0 0 512 512;"
   xml:space="preserve"
   sodipodi:docname="button_icon.svg"
   inkscape:version="0.92.4 (unknown)"><metadata
   id="metadata103"><rdf:RDF><cc:Work
       rdf:about=""><dc:format>image/svg+xml</dc:format><dc:type
         rdf:resource="http://purl.org/dc/dcmitype/StillImage" /><dc:title></dc:title></cc:Work></rdf:RDF></metadata><defs
   id="defs101" /><sodipodi:namedview
   pagecolor="#ffffff"
   bordercolor="#666666"
   borderopacity="1"
   objecttolerance="10"
   gridtolerance="10"
   guidetolerance="10"
   inkscape:pageopacity="0"
   inkscape:pageshadow="2"
   inkscape:window-width="1853"
   inkscape:window-height="1025"
   id="namedview99"
   showgrid="false"
   inkscape:zoom="0.4609375"
   inkscape:cx="3.2542373"
   inkscape:cy="256"
   inkscape:window-x="67"
   inkscape:window-y="27"
   inkscape:window-maximized="1"
   inkscape:current-layer="Capa_1" />
<g
   id="g6"
   style="fill:#505050;fill-opacity:1;stroke:#505050;stroke-opacity:1">
	<g
   id="g4"
   style="fill:#505050;fill-opacity:1;stroke:#505050;stroke-opacity:1">
		<path
   d="M466.959,2.467H39.783C17.847,2.467,0,20.313,0,42.249V282.76c0,21.936,17.847,39.782,39.783,39.782h98.397    c5.545,0,10.039-4.495,10.039-10.039s-4.495-10.039-10.04-10.039H39.783c-10.865,0-19.704-8.839-19.704-19.704V42.249    c0-10.865,8.839-19.704,19.704-19.704h427.176c10.865,0,19.704,8.839,19.704,19.704V282.76c0,10.865-8.839,19.704-19.704,19.704    h-30.148c-5.545,0-10.039,4.495-10.039,10.039s4.495,10.039,10.039,10.039h30.148c21.936,0,39.782-17.846,39.782-39.782V42.249    C506.741,20.313,488.895,2.467,466.959,2.467z"
   id="path2"
   style="fill:#505050;fill-opacity:1;stroke:#505050;stroke-opacity:1" />
	</g>
</g>
<g
   id="g12"
   transform="translate(-62,-74)"
   style="fill:#505050;fill-opacity:1;stroke:#505050;stroke-opacity:1">
	<g
   id="g10"
   style="fill:#505050;fill-opacity:1;stroke:#505050;stroke-opacity:1">
		<path
   d="m 511.99,371.309 c -0.255,-7.916 -5.219,-14.811 -12.644,-17.566 v -10e-4 L 333.298,292.139 c -11.245,-4.17 -23.498,-1.494 -31.978,6.984 -8.481,8.478 -11.16,20.731 -6.992,31.975 l 61.447,165.775 c 2.767,7.464 9.696,12.43 17.653,12.652 0.186,0.006 0.37,0.008 0.554,0.008 7.735,0 14.672,-4.527 17.776,-11.655 l 16.997,-39.021 36.85,36.861 c 10.488,10.491 27.557,10.495 38.049,0.006 l 14.215,-14.212 c 5.082,-5.081 7.882,-11.837 7.883,-19.024 10e-4,-7.186 -2.797,-13.943 -7.877,-19.025 L 461.49,407.07 500.506,389.653 c 7.232,-3.229 11.74,-10.429 11.484,-18.344 z m -72.007,23.372 c -3.018,1.347 -5.179,4.093 -5.78,7.342 -0.6,3.249 0.436,6.586 2.772,8.924 l 46.7,46.713 c 2.661,2.662 2.661,6.992 -0.001,9.653 l -14.215,14.212 c -1.289,1.289 -3.003,1.998 -4.826,1.998 h -10e-4 c -1.824,0 -3.538,-0.71 -4.827,-2 l -47.269,-47.282 c -2.348,-2.349 -5.705,-3.381 -8.969,-2.766 -3.263,0.618 -6.009,2.81 -7.335,5.855 L 374.02,488.324 313.155,324.121 c -2.117,-5.712 1.272,-9.709 2.361,-10.798 0.839,-0.838 3.403,-3.041 7.148,-3.041 1.117,0 2.34,0.196 3.651,0.683 l 164.497,61.027 z m 52.386,-22.11 c -0.002,-0.002 -0.004,-0.003 -0.007,-0.004 l 3.492,-9.412 z"
   id="path8"
   inkscape:connector-curvature="0"
   style="fill:#505050;fill-opacity:1;stroke:#505050;stroke-opacity:1" />
	</g>
</g>
<g
   id="g18"
   transform="translate(-62,-74)"
   style="fill:#505050;fill-opacity:1;stroke:#505050;stroke-opacity:1">
	<g
   id="g16"
   style="fill:#505050;fill-opacity:1;stroke:#505050;stroke-opacity:1">
		<path
   d="m 285.926,269.48 -28.368,-28.37 c -3.921,-3.919 -10.277,-3.919 -14.198,0 -3.921,3.921 -3.921,10.277 -0.001,14.198 l 28.369,28.37 c 1.961,1.96 4.529,2.94 7.099,2.94 2.569,0 5.139,-0.98 7.099,-2.94 3.921,-3.921 3.921,-10.277 0,-14.198 z"
   id="path14"
   inkscape:connector-curvature="0"
   style="fill:#505050;fill-opacity:1;stroke:#505050;stroke-opacity:1" />
	</g>
</g>
<g
   id="g24"
   style="fill:#505050;fill-opacity:1;stroke:#505050;stroke-opacity:1">
	<g
   id="g22"
   style="fill:#505050;fill-opacity:1;stroke:#505050;stroke-opacity:1">
		<path
   d="m 196.097,228.551 h -40.12 c -5.545,0 -10.039,4.495 -10.039,10.039 0,5.544 4.495,10.039 10.039,10.039 h 40.12 c 5.544,0 10.039,-4.495 10.039,-10.039 0,-5.544 -4.495,-10.039 -10.039,-10.039 z"
   id="path20"
   inkscape:connector-curvature="0"
   style="fill:#505050;fill-opacity:1;stroke:#505050;stroke-opacity:1" />
	</g>
</g>
<g
   id="g30"
   transform="translate(-62,-74)"
   style="fill:#505050;fill-opacity:1;stroke:#505050;stroke-opacity:1">
	<g
   id="g28"
   style="fill:#505050;fill-opacity:1;stroke:#505050;stroke-opacity:1">
		<path
   d="m 315.704,204.824 c -5.544,0 -10.039,4.495 -10.039,10.039 v 40.12 c 0,5.544 4.495,10.039 10.039,10.039 5.544,0 10.039,-4.495 10.039,-10.039 v -40.12 c 0,-5.544 -4.495,-10.039 -10.039,-10.039 z"
   id="path26"
   inkscape:connector-curvature="0"
   style="fill:#505050;fill-opacity:1;stroke:#505050;stroke-opacity:1" />
	</g>
</g>
<g
   id="g36"
   transform="translate(-62,-74)"
   style="fill:#505050;fill-opacity:1;stroke:#505050;stroke-opacity:1">
	<g
   id="g34"
   style="fill:#505050;fill-opacity:1;stroke:#505050;stroke-opacity:1">
		<path
   d="m 399.987,223.474 c -3.921,-3.919 -10.277,-3.92 -14.198,0 l -28.369,28.369 c -3.921,3.921 -3.921,10.277 -0.001,14.198 1.961,1.96 4.53,2.94 7.1,2.94 2.569,0 5.139,-0.98 7.099,-2.94 l 28.369,-28.369 c 3.921,-3.921 3.921,-10.277 0,-14.198 z"
   id="path32"
   inkscape:connector-curvature="0"
   style="fill:#505050;fill-opacity:1;stroke:#505050;stroke-opacity:1" />
	</g>
</g>
<g
   id="g42"
   transform="translate(-62,-74)"
   style="fill:#505050;fill-opacity:1;stroke:#505050;stroke-opacity:1">
	<g
   id="g40"
   style="fill:#505050;fill-opacity:1;stroke:#505050;stroke-opacity:1">
		<path
   d="m 274.284,349.176 c -3.921,-3.919 -10.278,-3.919 -14.198,0 l -28.369,28.37 c -3.921,3.921 -3.92,10.277 0,14.198 1.96,1.96 4.529,2.94 7.099,2.94 2.57,0 5.139,-0.98 7.099,-2.94 l 28.369,-28.37 c 3.921,-3.921 3.92,-10.277 0,-14.198 z"
   id="path38"
   inkscape:connector-curvature="0"
   style="fill:#505050;fill-opacity:1;stroke:#505050;stroke-opacity:1" />
	</g>
</g>
<g
   id="g48"
   style="fill:#505050;fill-opacity:1;stroke:#505050;stroke-opacity:1">
	<g
   id="g46"
   style="fill:#505050;fill-opacity:1;stroke:#505050;stroke-opacity:1">
		<circle
   cx="178.01"
   cy="312.5"
   r="10.07"
   id="circle44"
   style="fill:#505050;fill-opacity:1;stroke:#505050;stroke-opacity:1" />
	</g>
</g>



<g
   id="g68"
   style="fill:#505050;fill-opacity:1;stroke:#505050;stroke-opacity:1">
</g>
<g
   id="g70"
   style="fill:#505050;fill-opacity:1;stroke:#505050;stroke-opacity:1">
</g>
<g
   id="g72"
   style="fill:#505050;fill-opacity:1;stroke:#505050;stroke-opacity:1">
</g>
<g
   id="g74"
   style="fill:#505050;fill-opacity:1;stroke:#505050;stroke-opacity:1">
</g>
<g
   id="g76"
   style="fill:#505050;fill-opacity:1;stroke:#505050;stroke-opacity:1">
</g>
<g
   id="g78"
   style="fill:#505050;fill-opacity:1;stroke:#505050;stroke-opacity:1">
</g>
<g
   id="g80"
   style="fill:#505050;fill-opacity:1;stroke:#505050;stroke-opacity:1">
</g>
<g
   id="g82"
   style="fill:#505050;fill-opacity:1;stroke:#505050;stroke-opacity:1">
</g>
<g
   id="g84"
   style="fill:#505050;fill-opacity:1;stroke:#505050;stroke-opacity:1">
</g>
<g
   id="g86"
   style="fill:#505050;fill-opacity:1;stroke:#505050;stroke-opacity:1">
</g>
<g
   id="g88"
   style="fill:#505050;fill-opacity:1;stroke:#505050;stroke-opacity:1">
</g>
<g
   id="g90"
   style="fill:#505050;fill-opacity:1;stroke:#505050;stroke-opacity:1">
</g>
<g
   id="g92"
   style="fill:#505050;fill-opacity:1;stroke:#505050;stroke-opacity:1">
</g>
<g
   id="g94"
   style="fill:#505050;fill-opacity:1;stroke:#505050;stroke-opacity:1">
</g>
<g
   id="g96"
   style="fill:#505050;fill-opacity:1;stroke:#505050;stroke-opacity:1">
</g>
</svg>